<?xml version="1.0" encoding="utf-8" standalone="no"?>
<!DOCTYPE svg PUBLIC "-//W3C//DTD SVG 1.1//EN"
  "http://www.w3.org/Graphics/SVG/1.1/DTD/svg11.dtd">
<svg xmlns:xlink="http://www.w3.org/1999/xlink" width="1001.698128pt" height="495.631025pt" viewBox="0 0 1001.698128 495.631025" xmlns="http://www.w3.org/2000/svg" version="1.1">
 <metadata>
  <rdf:RDF xmlns:dc="http://purl.org/dc/elements/1.1/" xmlns:cc="http://creativecommons.org/ns#" xmlns:rdf="http://www.w3.org/1999/02/22-rdf-syntax-ns#">
   <cc:Work>
    <dc:type rdf:resource="http://purl.org/dc/dcmitype/StillImage"/>
    <dc:date>2023-10-31T19:38:58.527718</dc:date>
    <dc:format>image/svg+xml</dc:format>
    <dc:creator>
     <cc:Agent>
      <dc:title>Matplotlib v3.7.1, https://matplotlib.org/</dc:title>
     </cc:Agent>
    </dc:creator>
   </cc:Work>
  </rdf:RDF>
 </metadata>
 <defs>
  <style type="text/css">*{stroke-linejoin: round; stroke-linecap: butt}</style>
 </defs>
 <g id="figure_1">
  <g id="patch_1">
   <path d="M 0 495.631025 
L 1001.698128 495.631025 
L 1001.698128 0 
L 0 0 
z
" style="fill: #ffffff"/>
  </g>
  <g id="axes_1">
   <g id="patch_2">
    <path d="M 75.29 435.551025 
L 992.8228 435.551025 
L 992.8228 41.600025 
L 75.29 41.600025 
z
" style="fill: #ffffff"/>
   </g>
   <g id="matplotlib.axis_1">
    <g id="xtick_1">
     <g id="line2d_1">
      <defs>
       <path id="mcbde3b806e" d="M 0 0 
L 0 6 
" style="stroke: #262626; stroke-width: 1.25"/>
      </defs>
      <g>
       <use xlink:href="#mcbde3b806e" x="88.783129" y="440.551025" style="fill: #262626; stroke: #262626; stroke-width: 1.25"/>
      </g>
     </g>
     <g id="text_1">
      <!-- 1 -->
      <g style="fill: #262626" transform="translate(85.839379 462.418525) scale(0.16 -0.16)">
       <defs>
        <path id="Graphik-Light-31" d="M 1222 0 
L 1222 4205 
L 173 3475 
L 173 3808 
L 1274 4576 
L 1574 4576 
L 1574 0 
L 1222 0 
z
" transform="scale(0.015625)"/>
       </defs>
       <use xlink:href="#Graphik-Light-31"/>
      </g>
     </g>
    </g>
    <g id="xtick_2">
     <g id="line2d_2">
      <g>
       <use xlink:href="#mcbde3b806e" x="115.769388" y="440.551025" style="fill: #262626; stroke: #262626; stroke-width: 1.25"/>
      </g>
     </g>
     <g id="text_2">
      <!-- 2 -->
      <g style="fill: #262626" transform="translate(111.473138 462.418525) scale(0.16 -0.16)">
       <defs>
        <path id="Graphik-Light-32" d="M 128 0 
L 128 83 
L 1965 1984 
Q 2336 2368 2509 2697 
Q 2682 3027 2682 3392 
Q 2682 3840 2419 4086 
Q 2157 4333 1709 4333 
Q 1254 4333 966 4061 
Q 678 3789 614 3245 
L 282 3245 
Q 333 3891 720 4259 
Q 1107 4627 1708 4627 
Q 2310 4627 2675 4294 
Q 3040 3962 3040 3379 
Q 3040 2611 2170 1760 
L 691 294 
L 3104 294 
L 3104 0 
L 128 0 
z
" transform="scale(0.015625)"/>
       </defs>
       <use xlink:href="#Graphik-Light-32"/>
      </g>
     </g>
    </g>
    <g id="xtick_3">
     <g id="line2d_3">
      <g>
       <use xlink:href="#mcbde3b806e" x="142.755647" y="440.551025" style="fill: #262626; stroke: #262626; stroke-width: 1.25"/>
      </g>
     </g>
     <g id="text_3">
      <!-- 3 -->
      <g style="fill: #262626" transform="translate(138.219397 462.418525) scale(0.16 -0.16)">
       <defs>
        <path id="Graphik-Light-33" d="M 1766 -51 
Q 1088 -51 675 336 
Q 262 723 237 1293 
L 563 1293 
Q 608 826 912 534 
Q 1216 243 1773 243 
Q 2323 243 2620 512 
Q 2918 781 2918 1267 
Q 2918 1722 2656 1984 
Q 2394 2246 1875 2246 
L 1542 2246 
L 1542 2547 
L 1850 2547 
Q 2317 2547 2547 2790 
Q 2778 3034 2778 3418 
Q 2778 3821 2531 4073 
Q 2285 4326 1837 4326 
Q 1370 4326 1075 4060 
Q 781 3795 736 3373 
L 416 3373 
Q 448 3904 845 4265 
Q 1242 4627 1837 4627 
Q 2426 4627 2774 4281 
Q 3123 3936 3123 3424 
Q 3123 3059 2921 2793 
Q 2720 2528 2374 2419 
Q 2797 2323 3040 2025 
Q 3283 1728 3283 1267 
Q 3283 653 2867 301 
Q 2451 -51 1766 -51 
z
" transform="scale(0.015625)"/>
       </defs>
       <use xlink:href="#Graphik-Light-33"/>
      </g>
     </g>
    </g>
    <g id="xtick_4">
     <g id="line2d_4">
      <g>
       <use xlink:href="#mcbde3b806e" x="169.741906" y="440.551025" style="fill: #262626; stroke: #262626; stroke-width: 1.25"/>
      </g>
     </g>
     <g id="text_4">
      <!-- 4 -->
      <g style="fill: #262626" transform="translate(164.981906 462.418525) scale(0.16 -0.16)">
       <defs>
        <path id="Graphik-Light-34" d="M 2573 0 
L 2573 1030 
L 211 1030 
L 211 1139 
L 2426 4576 
L 2925 4576 
L 2925 1325 
L 3558 1325 
L 3558 1030 
L 2925 1030 
L 2925 0 
L 2573 0 
z
M 685 1325 
L 2573 1325 
L 2573 4314 
L 685 1325 
z
" transform="scale(0.015625)"/>
       </defs>
       <use xlink:href="#Graphik-Light-34"/>
      </g>
     </g>
    </g>
    <g id="xtick_5">
     <g id="line2d_5">
      <g>
       <use xlink:href="#mcbde3b806e" x="196.728165" y="440.551025" style="fill: #262626; stroke: #262626; stroke-width: 1.25"/>
      </g>
     </g>
     <g id="text_5">
      <!-- 5 -->
      <g style="fill: #262626" transform="translate(192.240665 462.418525) scale(0.16 -0.16)">
       <defs>
        <path id="Graphik-Light-35" d="M 1715 -51 
Q 1050 -51 672 294 
Q 294 640 243 1178 
L 589 1178 
Q 730 243 1715 243 
Q 2259 243 2569 576 
Q 2880 909 2880 1485 
Q 2880 2022 2569 2352 
Q 2259 2682 1779 2682 
Q 1056 2682 646 2182 
L 512 2182 
L 512 4576 
L 3008 4576 
L 3008 4269 
L 813 4269 
L 813 2592 
Q 1197 2976 1837 2976 
Q 2445 2976 2845 2566 
Q 3245 2157 3245 1485 
Q 3245 781 2816 365 
Q 2387 -51 1715 -51 
z
" transform="scale(0.015625)"/>
       </defs>
       <use xlink:href="#Graphik-Light-35"/>
      </g>
     </g>
    </g>
    <g id="xtick_6">
     <g id="line2d_6">
      <g>
       <use xlink:href="#mcbde3b806e" x="223.714424" y="440.551025" style="fill: #262626; stroke: #262626; stroke-width: 1.25"/>
      </g>
     </g>
     <g id="text_6">
      <!-- 6 -->
      <g style="fill: #262626" transform="translate(218.914424 462.418525) scale(0.16 -0.16)">
       <defs>
        <path id="Graphik-Light-36" d="M 1978 -51 
Q 1421 -51 1053 211 
Q 685 474 534 893 
Q 384 1312 384 1875 
L 384 2208 
Q 384 3418 851 4022 
Q 1318 4627 2106 4627 
Q 2630 4627 2972 4364 
Q 3315 4102 3392 3584 
L 3053 3584 
Q 2912 4326 2086 4326 
Q 1466 4326 1104 3836 
Q 742 3347 736 2317 
L 736 2131 
Q 890 2496 1245 2704 
Q 1600 2912 2016 2912 
Q 2714 2912 3114 2499 
Q 3514 2086 3514 1446 
Q 3514 774 3094 361 
Q 2675 -51 1978 -51 
z
M 1978 237 
Q 2509 237 2829 566 
Q 3149 896 3149 1434 
Q 3149 1978 2841 2301 
Q 2534 2624 1971 2624 
Q 1466 2624 1120 2313 
Q 774 2003 774 1491 
Q 774 941 1088 589 
Q 1402 237 1978 237 
z
" transform="scale(0.015625)"/>
       </defs>
       <use xlink:href="#Graphik-Light-36"/>
      </g>
     </g>
    </g>
    <g id="xtick_7">
     <g id="line2d_7">
      <g>
       <use xlink:href="#mcbde3b806e" x="250.700682" y="440.551025" style="fill: #262626; stroke: #262626; stroke-width: 1.25"/>
      </g>
     </g>
     <g id="text_7">
      <!-- 7 -->
      <g style="fill: #262626" transform="translate(246.668182 462.418525) scale(0.16 -0.16)">
       <defs>
        <path id="Graphik-Light-37" d="M 954 0 
L 2656 4282 
L 179 4282 
L 179 4576 
L 3104 4576 
L 3104 4518 
L 1318 0 
L 954 0 
z
" transform="scale(0.015625)"/>
       </defs>
       <use xlink:href="#Graphik-Light-37"/>
      </g>
     </g>
    </g>
    <g id="xtick_8">
     <g id="line2d_8">
      <g>
       <use xlink:href="#mcbde3b806e" x="277.686941" y="440.551025" style="fill: #262626; stroke: #262626; stroke-width: 1.25"/>
      </g>
     </g>
     <g id="text_8">
      <!-- 8 -->
      <g style="fill: #262626" transform="translate(273.023191 462.418525) scale(0.16 -0.16)">
       <defs>
        <path id="Graphik-Light-38" d="M 1869 -51 
Q 1242 -51 787 301 
Q 333 653 333 1274 
Q 333 1734 611 2048 
Q 890 2362 1338 2477 
Q 973 2579 749 2838 
Q 525 3098 525 3475 
Q 525 3987 925 4307 
Q 1325 4627 1869 4627 
Q 2413 4627 2809 4307 
Q 3206 3987 3206 3488 
Q 3206 3104 2992 2848 
Q 2778 2592 2406 2477 
Q 2867 2355 3132 2051 
Q 3398 1747 3398 1286 
Q 3398 653 2956 301 
Q 2515 -51 1869 -51 
z
M 1869 250 
Q 2394 250 2714 522 
Q 3034 794 3034 1299 
Q 3034 1779 2707 2048 
Q 2381 2317 1881 2317 
Q 1382 2317 1040 2041 
Q 698 1766 698 1286 
Q 698 787 1030 518 
Q 1363 250 1869 250 
z
M 1888 2605 
Q 2310 2605 2579 2838 
Q 2848 3072 2848 3488 
Q 2848 3859 2569 4099 
Q 2291 4339 1869 4339 
Q 1440 4339 1161 4102 
Q 883 3866 883 3475 
Q 883 3072 1180 2838 
Q 1478 2605 1888 2605 
z
" transform="scale(0.015625)"/>
       </defs>
       <use xlink:href="#Graphik-Light-38"/>
      </g>
     </g>
    </g>
    <g id="xtick_9">
     <g id="line2d_9">
      <g>
       <use xlink:href="#mcbde3b806e" x="304.6732" y="440.551025" style="fill: #262626; stroke: #262626; stroke-width: 1.25"/>
      </g>
     </g>
     <g id="text_9">
      <!-- 9 -->
      <g style="fill: #262626" transform="translate(299.8807 462.418525) scale(0.16 -0.16)">
       <defs>
        <path id="Graphik-Light-39" d="M 1798 -45 
Q 1229 -45 861 240 
Q 493 525 397 1050 
L 742 1050 
Q 922 250 1805 250 
Q 2438 250 2771 694 
Q 3104 1139 3110 2170 
L 3110 2413 
Q 2957 2061 2595 1862 
Q 2234 1664 1811 1664 
Q 1126 1664 723 2073 
Q 320 2483 320 3136 
Q 320 3808 742 4217 
Q 1165 4627 1862 4627 
Q 2650 4627 3053 4121 
Q 3456 3616 3456 2739 
L 3456 2214 
Q 3456 -45 1798 -45 
z
M 1856 1952 
Q 2368 1952 2717 2256 
Q 3066 2560 3066 3053 
Q 3066 3610 2749 3978 
Q 2432 4346 1862 4346 
Q 1325 4346 1005 4016 
Q 685 3686 685 3149 
Q 685 2605 992 2278 
Q 1299 1952 1856 1952 
z
" transform="scale(0.015625)"/>
       </defs>
       <use xlink:href="#Graphik-Light-39"/>
      </g>
     </g>
    </g>
    <g id="xtick_10">
     <g id="line2d_10">
      <g>
       <use xlink:href="#mcbde3b806e" x="331.659459" y="440.551025" style="fill: #262626; stroke: #262626; stroke-width: 1.25"/>
      </g>
     </g>
     <g id="text_10">
      <!-- 10 -->
      <g style="fill: #262626" transform="translate(323.443209 462.418525) scale(0.16 -0.16)">
       <defs>
        <path id="Graphik-Light-30" d="M 2125 250 
Q 2803 250 3148 723 
Q 3494 1197 3494 2112 
L 3494 2496 
Q 3494 3341 3126 3837 
Q 2758 4333 2105 4333 
Q 1453 4333 1091 3849 
Q 730 3366 730 2483 
L 730 2093 
Q 730 1190 1098 720 
Q 1466 250 2125 250 
z
M 2125 -51 
Q 1306 -51 835 521 
Q 365 1094 365 2093 
L 365 2477 
Q 365 3482 829 4054 
Q 1293 4627 2105 4627 
Q 2918 4627 3388 4051 
Q 3859 3475 3859 2496 
L 3859 2106 
Q 3859 1101 3404 525 
Q 2950 -51 2125 -51 
z
" transform="scale(0.015625)"/>
       </defs>
       <use xlink:href="#Graphik-Light-31"/>
       <use xlink:href="#Graphik-Light-30" x="36.799988"/>
      </g>
     </g>
    </g>
    <g id="xtick_11">
     <g id="line2d_11">
      <g>
       <use xlink:href="#mcbde3b806e" x="358.645718" y="440.551025" style="fill: #262626; stroke: #262626; stroke-width: 1.25"/>
      </g>
     </g>
     <g id="text_11">
      <!-- 11 -->
      <g style="fill: #262626" transform="translate(352.758218 462.418525) scale(0.16 -0.16)">
       <use xlink:href="#Graphik-Light-31"/>
       <use xlink:href="#Graphik-Light-31" x="36.799988"/>
      </g>
     </g>
    </g>
    <g id="xtick_12">
     <g id="line2d_12">
      <g>
       <use xlink:href="#mcbde3b806e" x="385.631976" y="440.551025" style="fill: #262626; stroke: #262626; stroke-width: 1.25"/>
      </g>
     </g>
     <g id="text_12">
      <!-- 12 -->
      <g style="fill: #262626" transform="translate(378.391976 462.418525) scale(0.16 -0.16)">
       <use xlink:href="#Graphik-Light-31"/>
       <use xlink:href="#Graphik-Light-32" x="36.799988"/>
      </g>
     </g>
    </g>
    <g id="xtick_13">
     <g id="line2d_13">
      <g>
       <use xlink:href="#mcbde3b806e" x="412.618235" y="440.551025" style="fill: #262626; stroke: #262626; stroke-width: 1.25"/>
      </g>
     </g>
     <g id="text_13">
      <!-- 13 -->
      <g style="fill: #262626" transform="translate(405.138235 462.418525) scale(0.16 -0.16)">
       <use xlink:href="#Graphik-Light-31"/>
       <use xlink:href="#Graphik-Light-33" x="36.799988"/>
      </g>
     </g>
    </g>
    <g id="xtick_14">
     <g id="line2d_14">
      <g>
       <use xlink:href="#mcbde3b806e" x="439.604494" y="440.551025" style="fill: #262626; stroke: #262626; stroke-width: 1.25"/>
      </g>
     </g>
     <g id="text_14">
      <!-- 14 -->
      <g style="fill: #262626" transform="translate(431.900744 462.418525) scale(0.16 -0.16)">
       <use xlink:href="#Graphik-Light-31"/>
       <use xlink:href="#Graphik-Light-34" x="36.799988"/>
      </g>
     </g>
    </g>
    <g id="xtick_15">
     <g id="line2d_15">
      <g>
       <use xlink:href="#mcbde3b806e" x="466.590753" y="440.551025" style="fill: #262626; stroke: #262626; stroke-width: 1.25"/>
      </g>
     </g>
     <g id="text_15">
      <!-- 15 -->
      <g style="fill: #262626" transform="translate(459.159503 462.418525) scale(0.16 -0.16)">
       <use xlink:href="#Graphik-Light-31"/>
       <use xlink:href="#Graphik-Light-35" x="36.799988"/>
      </g>
     </g>
    </g>
    <g id="xtick_16">
     <g id="line2d_16">
      <g>
       <use xlink:href="#mcbde3b806e" x="493.577012" y="440.551025" style="fill: #262626; stroke: #262626; stroke-width: 1.25"/>
      </g>
     </g>
     <g id="text_16">
      <!-- 16 -->
      <g style="fill: #262626" transform="translate(485.833262 462.418525) scale(0.16 -0.16)">
       <use xlink:href="#Graphik-Light-31"/>
       <use xlink:href="#Graphik-Light-36" x="36.799988"/>
      </g>
     </g>
    </g>
    <g id="xtick_17">
     <g id="line2d_17">
      <g>
       <use xlink:href="#mcbde3b806e" x="520.563271" y="440.551025" style="fill: #262626; stroke: #262626; stroke-width: 1.25"/>
      </g>
     </g>
     <g id="text_17">
      <!-- 17 -->
      <g style="fill: #262626" transform="translate(513.587021 462.418525) scale(0.16 -0.16)">
       <use xlink:href="#Graphik-Light-31"/>
       <use xlink:href="#Graphik-Light-37" x="36.799988"/>
      </g>
     </g>
    </g>
    <g id="xtick_18">
     <g id="line2d_18">
      <g>
       <use xlink:href="#mcbde3b806e" x="547.549529" y="440.551025" style="fill: #262626; stroke: #262626; stroke-width: 1.25"/>
      </g>
     </g>
     <g id="text_18">
      <!-- 18 -->
      <g style="fill: #262626" transform="translate(539.942029 462.418525) scale(0.16 -0.16)">
       <use xlink:href="#Graphik-Light-31"/>
       <use xlink:href="#Graphik-Light-38" x="36.799988"/>
      </g>
     </g>
    </g>
    <g id="xtick_19">
     <g id="line2d_19">
      <g>
       <use xlink:href="#mcbde3b806e" x="574.535788" y="440.551025" style="fill: #262626; stroke: #262626; stroke-width: 1.25"/>
      </g>
     </g>
     <g id="text_19">
      <!-- 19 -->
      <g style="fill: #262626" transform="translate(566.799538 462.418525) scale(0.16 -0.16)">
       <use xlink:href="#Graphik-Light-31"/>
       <use xlink:href="#Graphik-Light-39" x="36.799988"/>
      </g>
     </g>
    </g>
    <g id="xtick_20">
     <g id="line2d_20">
      <g>
       <use xlink:href="#mcbde3b806e" x="601.522047" y="440.551025" style="fill: #262626; stroke: #262626; stroke-width: 1.25"/>
      </g>
     </g>
     <g id="text_20">
      <!-- 20 -->
      <g style="fill: #262626" transform="translate(591.953297 462.418525) scale(0.16 -0.16)">
       <use xlink:href="#Graphik-Light-32"/>
       <use xlink:href="#Graphik-Light-30" x="53.699997"/>
      </g>
     </g>
    </g>
    <g id="xtick_21">
     <g id="line2d_21">
      <g>
       <use xlink:href="#mcbde3b806e" x="628.508306" y="440.551025" style="fill: #262626; stroke: #262626; stroke-width: 1.25"/>
      </g>
     </g>
     <g id="text_21">
      <!-- 21 -->
      <g style="fill: #262626" transform="translate(621.268306 462.418525) scale(0.16 -0.16)">
       <use xlink:href="#Graphik-Light-32"/>
       <use xlink:href="#Graphik-Light-31" x="53.699997"/>
      </g>
     </g>
    </g>
    <g id="xtick_22">
     <g id="line2d_22">
      <g>
       <use xlink:href="#mcbde3b806e" x="655.494565" y="440.551025" style="fill: #262626; stroke: #262626; stroke-width: 1.25"/>
      </g>
     </g>
     <g id="text_22">
      <!-- 22 -->
      <g style="fill: #262626" transform="translate(646.902065 462.418525) scale(0.16 -0.16)">
       <use xlink:href="#Graphik-Light-32"/>
       <use xlink:href="#Graphik-Light-32" x="53.699997"/>
      </g>
     </g>
    </g>
    <g id="xtick_23">
     <g id="line2d_23">
      <g>
       <use xlink:href="#mcbde3b806e" x="682.480824" y="440.551025" style="fill: #262626; stroke: #262626; stroke-width: 1.25"/>
      </g>
     </g>
     <g id="text_23">
      <!-- 23 -->
      <g style="fill: #262626" transform="translate(673.648324 462.418525) scale(0.16 -0.16)">
       <use xlink:href="#Graphik-Light-32"/>
       <use xlink:href="#Graphik-Light-33" x="53.699997"/>
      </g>
     </g>
    </g>
    <g id="xtick_24">
     <g id="line2d_24">
      <g>
       <use xlink:href="#mcbde3b806e" x="709.467082" y="440.551025" style="fill: #262626; stroke: #262626; stroke-width: 1.25"/>
      </g>
     </g>
     <g id="text_24">
      <!-- 24 -->
      <g style="fill: #262626" transform="translate(700.410832 462.418525) scale(0.16 -0.16)">
       <use xlink:href="#Graphik-Light-32"/>
       <use xlink:href="#Graphik-Light-34" x="53.699997"/>
      </g>
     </g>
    </g>
    <g id="xtick_25">
     <g id="line2d_25">
      <g>
       <use xlink:href="#mcbde3b806e" x="736.453341" y="440.551025" style="fill: #262626; stroke: #262626; stroke-width: 1.25"/>
      </g>
     </g>
     <g id="text_25">
      <!-- 25 -->
      <g style="fill: #262626" transform="translate(727.669591 462.418525) scale(0.16 -0.16)">
       <use xlink:href="#Graphik-Light-32"/>
       <use xlink:href="#Graphik-Light-35" x="53.699997"/>
      </g>
     </g>
    </g>
    <g id="xtick_26">
     <g id="line2d_26">
      <g>
       <use xlink:href="#mcbde3b806e" x="763.4396" y="440.551025" style="fill: #262626; stroke: #262626; stroke-width: 1.25"/>
      </g>
     </g>
     <g id="text_26">
      <!-- 26 -->
      <g style="fill: #262626" transform="translate(754.34335 462.418525) scale(0.16 -0.16)">
       <use xlink:href="#Graphik-Light-32"/>
       <use xlink:href="#Graphik-Light-36" x="53.699997"/>
      </g>
     </g>
    </g>
    <g id="xtick_27">
     <g id="line2d_27">
      <g>
       <use xlink:href="#mcbde3b806e" x="790.425859" y="440.551025" style="fill: #262626; stroke: #262626; stroke-width: 1.25"/>
      </g>
     </g>
     <g id="text_27">
      <!-- 27 -->
      <g style="fill: #262626" transform="translate(782.097109 462.418525) scale(0.16 -0.16)">
       <use xlink:href="#Graphik-Light-32"/>
       <use xlink:href="#Graphik-Light-37" x="53.699997"/>
      </g>
     </g>
    </g>
    <g id="xtick_28">
     <g id="line2d_28">
      <g>
       <use xlink:href="#mcbde3b806e" x="817.412118" y="440.551025" style="fill: #262626; stroke: #262626; stroke-width: 1.25"/>
      </g>
     </g>
     <g id="text_28">
      <!-- 28 -->
      <g style="fill: #262626" transform="translate(808.452118 462.418525) scale(0.16 -0.16)">
       <use xlink:href="#Graphik-Light-32"/>
       <use xlink:href="#Graphik-Light-38" x="53.699997"/>
      </g>
     </g>
    </g>
    <g id="xtick_29">
     <g id="line2d_29">
      <g>
       <use xlink:href="#mcbde3b806e" x="844.398376" y="440.551025" style="fill: #262626; stroke: #262626; stroke-width: 1.25"/>
      </g>
     </g>
     <g id="text_29">
      <!-- 29 -->
      <g style="fill: #262626" transform="translate(835.309626 462.418525) scale(0.16 -0.16)">
       <use xlink:href="#Graphik-Light-32"/>
       <use xlink:href="#Graphik-Light-39" x="53.699997"/>
      </g>
     </g>
    </g>
    <g id="xtick_30">
     <g id="line2d_30">
      <g>
       <use xlink:href="#mcbde3b806e" x="871.384635" y="440.551025" style="fill: #262626; stroke: #262626; stroke-width: 1.25"/>
      </g>
     </g>
     <g id="text_30">
      <!-- 30 -->
      <g style="fill: #262626" transform="translate(861.575885 462.418525) scale(0.16 -0.16)">
       <use xlink:href="#Graphik-Light-33"/>
       <use xlink:href="#Graphik-Light-30" x="56.699997"/>
      </g>
     </g>
    </g>
    <g id="xtick_31">
     <g id="line2d_31">
      <g>
       <use xlink:href="#mcbde3b806e" x="898.370894" y="440.551025" style="fill: #262626; stroke: #262626; stroke-width: 1.25"/>
      </g>
     </g>
     <g id="text_31">
      <!-- 31 -->
      <g style="fill: #262626" transform="translate(890.890894 462.418525) scale(0.16 -0.16)">
       <use xlink:href="#Graphik-Light-33"/>
       <use xlink:href="#Graphik-Light-31" x="56.699997"/>
      </g>
     </g>
    </g>
    <g id="xtick_32">
     <g id="line2d_32">
      <g>
       <use xlink:href="#mcbde3b806e" x="925.357153" y="440.551025" style="fill: #262626; stroke: #262626; stroke-width: 1.25"/>
      </g>
     </g>
     <g id="text_32">
      <!-- 32 -->
      <g style="fill: #262626" transform="translate(916.524653 462.418525) scale(0.16 -0.16)">
       <use xlink:href="#Graphik-Light-33"/>
       <use xlink:href="#Graphik-Light-32" x="56.699997"/>
      </g>
     </g>
    </g>
    <g id="xtick_33">
     <g id="line2d_33">
      <g>
       <use xlink:href="#mcbde3b806e" x="952.343412" y="440.551025" style="fill: #262626; stroke: #262626; stroke-width: 1.25"/>
      </g>
     </g>
     <g id="text_33">
      <!-- 33 -->
      <g style="fill: #262626" transform="translate(943.270912 462.418525) scale(0.16 -0.16)">
       <use xlink:href="#Graphik-Light-33"/>
       <use xlink:href="#Graphik-Light-33" x="56.699997"/>
      </g>
     </g>
    </g>
    <g id="xtick_34">
     <g id="line2d_34">
      <g>
       <use xlink:href="#mcbde3b806e" x="979.329671" y="440.551025" style="fill: #262626; stroke: #262626; stroke-width: 1.25"/>
      </g>
     </g>
     <g id="text_34">
      <!-- 34 -->
      <g style="fill: #262626" transform="translate(970.033421 462.418525) scale(0.16 -0.16)">
       <use xlink:href="#Graphik-Light-33"/>
       <use xlink:href="#Graphik-Light-34" x="56.699997"/>
      </g>
     </g>
    </g>
    <g id="text_35">
     <!-- Unit of Assessment Number -->
     <g style="fill: #262626" transform="translate(407.5939 484.7904) scale(0.2 -0.2)">
      <defs>
       <path id="Graphik-Light-55" d="M 2163 -45 
Q 1382 -45 953 390 
Q 525 826 525 1638 
L 525 4576 
L 877 4576 
L 877 1677 
Q 877 256 2170 256 
Q 2842 256 3165 611 
Q 3488 966 3488 1760 
L 3488 4576 
L 3846 4576 
L 3846 1709 
Q 3846 870 3424 412 
Q 3002 -45 2163 -45 
z
" transform="scale(0.015625)"/>
       <path id="Graphik-Light-6e" d="M 525 0 
L 525 3347 
L 864 3347 
L 864 2694 
Q 986 2989 1306 3193 
Q 1626 3398 2048 3398 
Q 2605 3398 2921 3072 
Q 3238 2746 3238 2061 
L 3238 0 
L 2899 0 
L 2899 2080 
Q 2899 3104 1971 3104 
Q 1523 3104 1193 2816 
Q 864 2528 864 2029 
L 864 0 
L 525 0 
z
" transform="scale(0.015625)"/>
       <path id="Graphik-Light-69" d="M 538 0 
L 538 3347 
L 877 3347 
L 877 0 
L 538 0 
z
M 873 4134 
Q 806 4064 704 4064 
Q 602 4064 531 4134 
Q 461 4205 461 4307 
Q 461 4403 531 4473 
Q 602 4544 704 4544 
Q 806 4544 873 4473 
Q 941 4403 941 4307 
Q 941 4205 873 4134 
z
" transform="scale(0.015625)"/>
       <path id="Graphik-Light-74" d="M 1472 -45 
Q 1075 -45 864 179 
Q 653 403 653 806 
L 653 3059 
L 160 3059 
L 160 3347 
L 653 3347 
L 653 4109 
L 992 4109 
L 992 3347 
L 1869 3347 
L 1869 3059 
L 992 3059 
L 992 832 
Q 992 243 1491 243 
Q 1702 243 1914 314 
L 1914 26 
Q 1715 -45 1472 -45 
z
" transform="scale(0.015625)"/>
       <path id="Graphik-Light-20" transform="scale(0.015625)"/>
       <path id="Graphik-Light-6f" d="M 1894 237 
Q 2445 237 2800 621 
Q 3155 1005 3155 1645 
L 3155 1696 
Q 3155 2342 2796 2726 
Q 2438 3110 1894 3110 
Q 1344 3110 985 2723 
Q 627 2336 627 1696 
L 627 1645 
Q 627 1011 982 624 
Q 1338 237 1894 237 
z
M 3040 425 
Q 2573 -51 1888 -51 
Q 1203 -51 739 429 
Q 275 909 275 1645 
L 275 1696 
Q 275 2438 742 2918 
Q 1210 3398 1894 3398 
Q 2586 3398 3046 2924 
Q 3507 2451 3507 1702 
L 3507 1651 
Q 3507 902 3040 425 
z
" transform="scale(0.015625)"/>
       <path id="Graphik-Light-66" d="M 672 0 
L 672 3059 
L 166 3059 
L 166 3347 
L 672 3347 
L 672 3949 
Q 672 4454 928 4710 
Q 1184 4966 1619 4966 
Q 1805 4966 1990 4909 
L 1990 4621 
Q 1818 4678 1632 4678 
Q 1344 4678 1177 4505 
Q 1011 4333 1011 3981 
L 1011 3347 
L 1946 3347 
L 1946 3059 
L 1011 3059 
L 1011 0 
L 672 0 
z
" transform="scale(0.015625)"/>
       <path id="Graphik-Light-41" d="M 211 0 
L 1856 4576 
L 2330 4576 
L 3974 0 
L 3616 0 
L 3110 1402 
L 1050 1402 
L 550 0 
L 211 0 
z
M 2080 4282 
L 1152 1690 
L 3008 1690 
L 2080 4282 
z
" transform="scale(0.015625)"/>
       <path id="Graphik-Light-73" d="M 1530 -58 
Q 947 -58 611 227 
Q 275 512 243 998 
L 570 998 
Q 666 230 1530 230 
Q 1946 230 2163 406 
Q 2381 582 2381 889 
Q 2381 1197 2189 1337 
Q 1997 1478 1504 1568 
Q 870 1683 611 1881 
Q 352 2080 352 2502 
Q 352 2912 678 3155 
Q 1005 3398 1453 3398 
Q 2496 3398 2618 2490 
L 2291 2490 
Q 2170 3110 1446 3110 
Q 1094 3110 880 2947 
Q 666 2784 666 2515 
Q 666 2234 861 2096 
Q 1056 1958 1581 1869 
Q 2176 1760 2441 1568 
Q 2707 1376 2707 915 
Q 2707 480 2396 211 
Q 2086 -58 1530 -58 
z
" transform="scale(0.015625)"/>
       <path id="Graphik-Light-65" d="M 1862 -51 
Q 1139 -51 707 416 
Q 275 883 275 1638 
L 275 1690 
Q 275 2445 707 2921 
Q 1139 3398 1811 3398 
Q 2451 3398 2864 2979 
Q 3277 2560 3277 1766 
L 3277 1645 
L 627 1645 
Q 640 966 957 601 
Q 1274 237 1862 237 
Q 2739 237 2912 934 
L 3251 934 
Q 3149 461 2777 205 
Q 2406 -51 1862 -51 
z
M 640 1920 
L 2925 1920 
Q 2899 2515 2608 2812 
Q 2317 3110 1811 3110 
Q 1325 3110 1005 2787 
Q 685 2464 640 1920 
z
" transform="scale(0.015625)"/>
       <path id="Graphik-Light-6d" d="M 525 0 
L 525 3347 
L 864 3347 
L 864 2714 
Q 986 3008 1277 3203 
Q 1568 3398 1958 3398 
Q 2784 3398 2982 2650 
Q 3136 3002 3462 3200 
Q 3789 3398 4173 3398 
Q 4691 3398 4992 3084 
Q 5293 2771 5293 2093 
L 5293 0 
L 4954 0 
L 4954 2112 
Q 4954 2630 4742 2867 
Q 4531 3104 4115 3104 
Q 3699 3104 3388 2819 
Q 3078 2534 3078 2042 
L 3078 0 
L 2739 0 
L 2739 2112 
Q 2739 2630 2528 2867 
Q 2317 3104 1901 3104 
Q 1485 3104 1174 2819 
Q 864 2534 864 2042 
L 864 0 
L 525 0 
z
" transform="scale(0.015625)"/>
       <path id="Graphik-Light-4e" d="M 589 0 
L 589 4576 
L 1075 4576 
L 3635 493 
L 3635 4576 
L 3974 4576 
L 3974 0 
L 3552 0 
L 934 4179 
L 934 0 
L 589 0 
z
" transform="scale(0.015625)"/>
       <path id="Graphik-Light-75" d="M 1670 -51 
Q 1120 -51 806 259 
Q 493 570 493 1229 
L 493 3347 
L 832 3347 
L 832 1248 
Q 832 243 1747 243 
Q 2189 243 2515 528 
Q 2842 813 2842 1312 
L 2842 3347 
L 3181 3347 
L 3181 0 
L 2842 0 
L 2842 640 
Q 2720 346 2406 147 
Q 2093 -51 1670 -51 
z
" transform="scale(0.015625)"/>
       <path id="Graphik-Light-62" d="M 2138 -51 
Q 1677 -51 1344 185 
Q 1011 422 864 762 
L 864 0 
L 525 0 
L 525 4947 
L 864 4947 
L 864 2566 
Q 1018 2912 1366 3155 
Q 1715 3398 2138 3398 
Q 2784 3398 3213 2937 
Q 3642 2477 3642 1709 
L 3642 1658 
Q 3642 883 3219 416 
Q 2797 -51 2138 -51 
z
M 2112 237 
Q 2650 237 2970 611 
Q 3290 986 3290 1645 
L 3290 1696 
Q 3290 2362 2950 2736 
Q 2611 3110 2106 3110 
Q 1587 3110 1222 2732 
Q 858 2355 858 1696 
L 858 1645 
Q 858 979 1213 608 
Q 1568 237 2112 237 
z
" transform="scale(0.015625)"/>
       <path id="Graphik-Light-72" d="M 525 0 
L 525 3347 
L 864 3347 
L 864 2643 
Q 1190 3366 1997 3392 
L 1997 3072 
Q 864 3027 864 1856 
L 864 0 
L 525 0 
z
" transform="scale(0.015625)"/>
      </defs>
      <use xlink:href="#Graphik-Light-55"/>
      <use xlink:href="#Graphik-Light-6e" x="68.199982"/>
      <use xlink:href="#Graphik-Light-69" x="126.499969"/>
      <use xlink:href="#Graphik-Light-74" x="148.59996"/>
      <use xlink:href="#Graphik-Light-20" x="182.399948"/>
      <use xlink:href="#Graphik-Light-6f" x="207.099945"/>
      <use xlink:href="#Graphik-Light-66" x="266.199936"/>
      <use xlink:href="#Graphik-Light-20" x="299.499924"/>
      <use xlink:href="#Graphik-Light-41" x="324.199921"/>
      <use xlink:href="#Graphik-Light-73" x="389.599915"/>
      <use xlink:href="#Graphik-Light-73" x="436.099899"/>
      <use xlink:href="#Graphik-Light-65" x="482.599884"/>
      <use xlink:href="#Graphik-Light-73" x="537.999878"/>
      <use xlink:href="#Graphik-Light-73" x="584.499863"/>
      <use xlink:href="#Graphik-Light-6d" x="630.999847"/>
      <use xlink:href="#Graphik-Light-65" x="721.399841"/>
      <use xlink:href="#Graphik-Light-6e" x="776.799835"/>
      <use xlink:href="#Graphik-Light-74" x="835.099823"/>
      <use xlink:href="#Graphik-Light-20" x="868.899811"/>
      <use xlink:href="#Graphik-Light-4e" x="893.599808"/>
      <use xlink:href="#Graphik-Light-75" x="964.899796"/>
      <use xlink:href="#Graphik-Light-6d" x="1022.799789"/>
      <use xlink:href="#Graphik-Light-62" x="1113.199783"/>
      <use xlink:href="#Graphik-Light-65" x="1174.39978"/>
      <use xlink:href="#Graphik-Light-72" x="1229.799774"/>
     </g>
    </g>
   </g>
   <g id="matplotlib.axis_2">
    <g id="ytick_1">
     <g id="line2d_35">
      <defs>
       <path id="m422730d2fc" d="M 0 0 
L -6 0 
" style="stroke: #262626; stroke-width: 1.25"/>
      </defs>
      <g>
       <use xlink:href="#m422730d2fc" x="70.29" y="435.551025" style="fill: #262626; stroke: #262626; stroke-width: 1.25"/>
      </g>
     </g>
     <g id="text_36">
      <!-- 0% -->
      <g style="fill: #262626" transform="translate(37.99 441.734775) scale(0.16 -0.16)">
       <defs>
        <path id="Graphik-Light-25" d="M 768 3014 
Q 960 2816 1261 2816 
Q 1562 2816 1754 3017 
Q 1946 3219 1946 3578 
Q 1946 3923 1754 4131 
Q 1562 4339 1261 4339 
Q 966 4339 771 4131 
Q 576 3923 576 3565 
Q 576 3213 768 3014 
z
M 1261 2547 
Q 858 2547 557 2832 
Q 256 3117 256 3565 
Q 256 4013 553 4310 
Q 851 4608 1261 4608 
Q 1677 4608 1968 4313 
Q 2259 4019 2259 3578 
Q 2259 3123 1964 2835 
Q 1670 2547 1261 2547 
z
M 826 0 
L 3744 4576 
L 4064 4576 
L 1152 0 
L 826 0 
z
M 3635 230 
Q 3936 230 4128 432 
Q 4320 634 4320 992 
Q 4320 1338 4128 1542 
Q 3936 1747 3635 1747 
Q 3341 1747 3145 1539 
Q 2950 1331 2950 979 
Q 2950 634 3145 432 
Q 3341 230 3635 230 
z
M 3635 -45 
Q 3232 -45 2934 243 
Q 2637 531 2637 979 
Q 2637 1427 2931 1724 
Q 3226 2022 3635 2022 
Q 4051 2022 4345 1728 
Q 4640 1434 4640 992 
Q 4640 538 4342 246 
Q 4045 -45 3635 -45 
z
" transform="scale(0.015625)"/>
       </defs>
       <use xlink:href="#Graphik-Light-30"/>
       <use xlink:href="#Graphik-Light-25" x="65.899994"/>
      </g>
     </g>
    </g>
    <g id="ytick_2">
     <g id="line2d_36">
      <g>
       <use xlink:href="#m422730d2fc" x="70.29" y="374.943179" style="fill: #262626; stroke: #262626; stroke-width: 1.25"/>
      </g>
     </g>
     <g id="text_37">
      <!-- 10% -->
      <g style="fill: #262626" transform="translate(32.1025 381.126929) scale(0.16 -0.16)">
       <use xlink:href="#Graphik-Light-31"/>
       <use xlink:href="#Graphik-Light-30" x="36.799988"/>
       <use xlink:href="#Graphik-Light-25" x="102.699982"/>
      </g>
     </g>
    </g>
    <g id="ytick_3">
     <g id="line2d_37">
      <g>
       <use xlink:href="#m422730d2fc" x="70.29" y="314.335333" style="fill: #262626; stroke: #262626; stroke-width: 1.25"/>
      </g>
     </g>
     <g id="text_38">
      <!-- 20% -->
      <g style="fill: #262626" transform="translate(29.3975 320.519083) scale(0.16 -0.16)">
       <use xlink:href="#Graphik-Light-32"/>
       <use xlink:href="#Graphik-Light-30" x="53.699997"/>
       <use xlink:href="#Graphik-Light-25" x="119.599991"/>
      </g>
     </g>
    </g>
    <g id="ytick_4">
     <g id="line2d_38">
      <g>
       <use xlink:href="#m422730d2fc" x="70.29" y="253.727487" style="fill: #262626; stroke: #262626; stroke-width: 1.25"/>
      </g>
     </g>
     <g id="text_39">
      <!-- 30% -->
      <g style="fill: #262626" transform="translate(28.9175 259.911237) scale(0.16 -0.16)">
       <use xlink:href="#Graphik-Light-33"/>
       <use xlink:href="#Graphik-Light-30" x="56.699997"/>
       <use xlink:href="#Graphik-Light-25" x="122.599991"/>
      </g>
     </g>
    </g>
    <g id="ytick_5">
     <g id="line2d_39">
      <g>
       <use xlink:href="#m422730d2fc" x="70.29" y="193.11964" style="fill: #262626; stroke: #262626; stroke-width: 1.25"/>
      </g>
     </g>
     <g id="text_40">
      <!-- 40% -->
      <g style="fill: #262626" transform="translate(28.47 199.30339) scale(0.16 -0.16)">
       <use xlink:href="#Graphik-Light-34"/>
       <use xlink:href="#Graphik-Light-30" x="59.499985"/>
       <use xlink:href="#Graphik-Light-25" x="125.399979"/>
      </g>
     </g>
    </g>
    <g id="ytick_6">
     <g id="line2d_40">
      <g>
       <use xlink:href="#m422730d2fc" x="70.29" y="132.511794" style="fill: #262626; stroke: #262626; stroke-width: 1.25"/>
      </g>
     </g>
     <g id="text_41">
      <!-- 50% -->
      <g style="fill: #262626" transform="translate(29.015 138.695544) scale(0.16 -0.16)">
       <use xlink:href="#Graphik-Light-35"/>
       <use xlink:href="#Graphik-Light-30" x="56.099991"/>
       <use xlink:href="#Graphik-Light-25" x="121.999985"/>
      </g>
     </g>
    </g>
    <g id="ytick_7">
     <g id="line2d_41">
      <g>
       <use xlink:href="#m422730d2fc" x="70.29" y="71.903948" style="fill: #262626; stroke: #262626; stroke-width: 1.25"/>
      </g>
     </g>
     <g id="text_42">
      <!-- 60% -->
      <g style="fill: #262626" transform="translate(28.39 78.087698) scale(0.16 -0.16)">
       <use xlink:href="#Graphik-Light-36"/>
       <use xlink:href="#Graphik-Light-30" x="59.999985"/>
       <use xlink:href="#Graphik-Light-25" x="125.899979"/>
      </g>
     </g>
    </g>
    <g id="text_43">
     <!-- Percent Female -->
     <g style="fill: #262626" transform="translate(21.113438 302.036775) rotate(-90) scale(0.18 -0.18)">
      <defs>
       <path id="Graphik-Light-50" d="M 589 0 
L 589 4576 
L 1798 4576 
Q 2509 4576 2934 4262 
Q 3360 3949 3360 3290 
L 3360 3264 
Q 3360 2592 2937 2275 
Q 2515 1958 1805 1958 
L 947 1958 
L 947 0 
L 589 0 
z
M 947 2246 
L 1830 2246 
Q 3002 2246 3002 3264 
L 3002 3290 
Q 3002 3821 2694 4051 
Q 2387 4282 1818 4282 
L 947 4282 
L 947 2246 
z
" transform="scale(0.015625)"/>
       <path id="Graphik-Light-63" d="M 1875 -51 
Q 1190 -51 732 419 
Q 275 890 275 1638 
L 275 1690 
Q 275 2445 736 2921 
Q 1197 3398 1875 3398 
Q 2419 3398 2812 3110 
Q 3206 2822 3270 2285 
L 2938 2285 
Q 2880 2688 2585 2899 
Q 2291 3110 1875 3110 
Q 1338 3110 982 2723 
Q 627 2336 627 1690 
L 627 1638 
Q 627 992 979 614 
Q 1331 237 1875 237 
Q 2310 237 2620 480 
Q 2931 723 2989 1158 
L 3302 1158 
Q 3232 621 2838 285 
Q 2445 -51 1875 -51 
z
" transform="scale(0.015625)"/>
       <path id="Graphik-Light-46" d="M 589 0 
L 589 4576 
L 3194 4576 
L 3194 4282 
L 947 4282 
L 947 2464 
L 2714 2464 
L 2714 2170 
L 947 2170 
L 947 0 
L 589 0 
z
" transform="scale(0.015625)"/>
       <path id="Graphik-Light-61" d="M 1414 -51 
Q 902 -51 592 195 
Q 282 442 282 902 
Q 282 1440 717 1677 
Q 1152 1914 1850 1914 
L 2547 1914 
L 2547 2214 
Q 2547 2682 2345 2896 
Q 2144 3110 1702 3110 
Q 870 3110 762 2400 
L 429 2400 
Q 486 2899 844 3148 
Q 1203 3398 1715 3398 
Q 2886 3398 2886 2214 
L 2886 0 
L 2547 0 
L 2547 512 
Q 2182 -51 1414 -51 
z
M 1440 224 
Q 1907 224 2227 467 
Q 2547 710 2547 1082 
L 2547 1651 
L 1862 1651 
Q 1485 1651 1225 1593 
Q 966 1536 793 1363 
Q 621 1190 621 902 
Q 621 224 1440 224 
z
" transform="scale(0.015625)"/>
       <path id="Graphik-Light-6c" d="M 538 0 
L 538 4947 
L 883 4947 
L 883 0 
L 538 0 
z
" transform="scale(0.015625)"/>
      </defs>
      <use xlink:href="#Graphik-Light-50"/>
      <use xlink:href="#Graphik-Light-65" x="56.799988"/>
      <use xlink:href="#Graphik-Light-72" x="112.199982"/>
      <use xlink:href="#Graphik-Light-63" x="146.999969"/>
      <use xlink:href="#Graphik-Light-65" x="202.59996"/>
      <use xlink:href="#Graphik-Light-6e" x="257.999954"/>
      <use xlink:href="#Graphik-Light-74" x="316.299942"/>
      <use xlink:href="#Graphik-Light-20" x="350.09993"/>
      <use xlink:href="#Graphik-Light-46" x="374.799927"/>
      <use xlink:href="#Graphik-Light-65" x="428.799911"/>
      <use xlink:href="#Graphik-Light-6d" x="484.199905"/>
      <use xlink:href="#Graphik-Light-61" x="574.599899"/>
      <use xlink:href="#Graphik-Light-6c" x="627.499893"/>
      <use xlink:href="#Graphik-Light-65" x="649.69989"/>
     </g>
    </g>
   </g>
   <g id="patch_3">
    <path d="M 82.036565 435.551025 
L 95.529694 435.551025 
L 95.529694 177.68819 
L 82.036565 177.68819 
z
" clip-path="url(#p935c59e486)" style="fill: #00a0df; opacity: 0.8; stroke: #1a1a1a; stroke-linejoin: miter"/>
   </g>
   <g id="patch_4">
    <path d="M 109.022824 435.551025 
L 122.515953 435.551025 
L 122.515953 154.30861 
L 109.022824 154.30861 
z
" clip-path="url(#p935c59e486)" style="fill: #00a0df; opacity: 0.8; stroke: #1a1a1a; stroke-linejoin: miter"/>
   </g>
   <g id="patch_5">
    <path d="M 136.009082 435.551025 
L 149.502212 435.551025 
L 149.502212 98.270363 
L 136.009082 98.270363 
z
" clip-path="url(#p935c59e486)" style="fill: #00a0df; opacity: 0.8; stroke: #1a1a1a; stroke-linejoin: miter"/>
   </g>
   <g id="patch_6">
    <path d="M 162.995341 435.551025 
L 176.488471 435.551025 
L 176.488471 112.281841 
L 162.995341 112.281841 
z
" clip-path="url(#p935c59e486)" style="fill: #ffb600; opacity: 0.8; stroke: #1a1a1a; stroke-linejoin: miter"/>
   </g>
   <g id="patch_7">
    <path d="M 189.9816 435.551025 
L 203.474729 435.551025 
L 203.474729 182.76643 
L 189.9816 182.76643 
z
" clip-path="url(#p935c59e486)" style="fill: #00a0df; opacity: 0.8; stroke: #1a1a1a; stroke-linejoin: miter"/>
   </g>
   <g id="patch_8">
    <path d="M 216.967859 435.551025 
L 230.460988 435.551025 
L 230.460988 188.237047 
L 216.967859 188.237047 
z
" clip-path="url(#p935c59e486)" style="fill: #00a0df; opacity: 0.8; stroke: #1a1a1a; stroke-linejoin: miter"/>
   </g>
   <g id="patch_9">
    <path d="M 243.954118 435.551025 
L 257.447247 435.551025 
L 257.447247 248.725042 
L 243.954118 248.725042 
z
" clip-path="url(#p935c59e486)" style="fill: #00a0df; opacity: 0.8; stroke: #1a1a1a; stroke-linejoin: miter"/>
   </g>
   <g id="patch_10">
    <path d="M 270.940376 435.551025 
L 284.433506 435.551025 
L 284.433506 233.524871 
L 270.940376 233.524871 
z
" clip-path="url(#p935c59e486)" style="fill: #00a0df; opacity: 0.8; stroke: #1a1a1a; stroke-linejoin: miter"/>
   </g>
   <g id="patch_11">
    <path d="M 297.926635 435.551025 
L 311.419765 435.551025 
L 311.419765 321.828666 
L 297.926635 321.828666 
z
" clip-path="url(#p935c59e486)" style="fill: #00a0df; opacity: 0.8; stroke: #1a1a1a; stroke-linejoin: miter"/>
   </g>
   <g id="patch_12">
    <path d="M 324.912894 435.551025 
L 338.406024 435.551025 
L 338.406024 268.141387 
L 324.912894 268.141387 
z
" clip-path="url(#p935c59e486)" style="fill: #00a0df; opacity: 0.8; stroke: #1a1a1a; stroke-linejoin: miter"/>
   </g>
   <g id="patch_13">
    <path d="M 351.899153 435.551025 
L 365.392282 435.551025 
L 365.392282 310.920181 
L 351.899153 310.920181 
z
" clip-path="url(#p935c59e486)" style="fill: #00a0df; opacity: 0.8; stroke: #1a1a1a; stroke-linejoin: miter"/>
   </g>
   <g id="patch_14">
    <path d="M 378.885412 435.551025 
L 392.378541 435.551025 
L 392.378541 298.946782 
L 378.885412 298.946782 
z
" clip-path="url(#p935c59e486)" style="fill: #00a0df; opacity: 0.8; stroke: #1a1a1a; stroke-linejoin: miter"/>
   </g>
   <g id="patch_15">
    <path d="M 405.871671 435.551025 
L 419.3648 435.551025 
L 419.3648 256.482389 
L 405.871671 256.482389 
z
" clip-path="url(#p935c59e486)" style="fill: #00a0df; opacity: 0.8; stroke: #1a1a1a; stroke-linejoin: miter"/>
   </g>
   <g id="patch_16">
    <path d="M 432.857929 435.551025 
L 446.351059 435.551025 
L 446.351059 234.364647 
L 432.857929 234.364647 
z
" clip-path="url(#p935c59e486)" style="fill: #ffb600; opacity: 0.8; stroke: #1a1a1a; stroke-linejoin: miter"/>
   </g>
   <g id="patch_17">
    <path d="M 459.844188 435.551025 
L 473.337318 435.551025 
L 473.337318 222.046112 
L 459.844188 222.046112 
z
" clip-path="url(#p935c59e486)" style="fill: #ffb600; opacity: 0.8; stroke: #1a1a1a; stroke-linejoin: miter"/>
   </g>
   <g id="patch_18">
    <path d="M 486.830447 435.551025 
L 500.323576 435.551025 
L 500.323576 246.509539 
L 486.830447 246.509539 
z
" clip-path="url(#p935c59e486)" style="fill: #ffb600; opacity: 0.8; stroke: #1a1a1a; stroke-linejoin: miter"/>
   </g>
   <g id="patch_19">
    <path d="M 513.816706 435.551025 
L 527.309835 435.551025 
L 527.309835 242.300323 
L 513.816706 242.300323 
z
" clip-path="url(#p935c59e486)" style="fill: #ffb600; opacity: 0.8; stroke: #1a1a1a; stroke-linejoin: miter"/>
   </g>
   <g id="patch_20">
    <path d="M 540.802965 435.551025 
L 554.296094 435.551025 
L 554.296094 94.264124 
L 540.802965 94.264124 
z
" clip-path="url(#p935c59e486)" style="fill: #ffb600; opacity: 0.8; stroke: #1a1a1a; stroke-linejoin: miter"/>
   </g>
   <g id="patch_21">
    <path d="M 567.789224 435.551025 
L 581.282353 435.551025 
L 581.282353 218.257517 
L 567.789224 218.257517 
z
" clip-path="url(#p935c59e486)" style="fill: #ffb600; opacity: 0.8; stroke: #1a1a1a; stroke-linejoin: miter"/>
   </g>
   <g id="patch_22">
    <path d="M 594.775482 435.551025 
L 608.268612 435.551025 
L 608.268612 95.239589 
L 594.775482 95.239589 
z
" clip-path="url(#p935c59e486)" style="fill: #ffb600; opacity: 0.8; stroke: #1a1a1a; stroke-linejoin: miter"/>
   </g>
   <g id="patch_23">
    <path d="M 621.761741 435.551025 
L 635.254871 435.551025 
L 635.254871 104.55942 
L 621.761741 104.55942 
z
" clip-path="url(#p935c59e486)" style="fill: #ffb600; opacity: 0.8; stroke: #1a1a1a; stroke-linejoin: miter"/>
   </g>
   <g id="patch_24">
    <path d="M 648.748 435.551025 
L 662.241129 435.551025 
L 662.241129 134.916867 
L 648.748 134.916867 
z
" clip-path="url(#p935c59e486)" style="fill: #ffb600; opacity: 0.8; stroke: #1a1a1a; stroke-linejoin: miter"/>
   </g>
   <g id="patch_25">
    <path d="M 675.734259 435.551025 
L 689.227388 435.551025 
L 689.227388 88.421629 
L 675.734259 88.421629 
z
" clip-path="url(#p935c59e486)" style="fill: #ffb600; opacity: 0.8; stroke: #1a1a1a; stroke-linejoin: miter"/>
   </g>
   <g id="patch_26">
    <path d="M 702.720518 435.551025 
L 716.213647 435.551025 
L 716.213647 227.702792 
L 702.720518 227.702792 
z
" clip-path="url(#p935c59e486)" style="fill: #ffb600; opacity: 0.8; stroke: #1a1a1a; stroke-linejoin: miter"/>
   </g>
   <g id="patch_27">
    <path d="M 729.706776 435.551025 
L 743.199906 435.551025 
L 743.199906 170.001184 
L 729.706776 170.001184 
z
" clip-path="url(#p935c59e486)" style="fill: #ffb600; opacity: 0.8; stroke: #1a1a1a; stroke-linejoin: miter"/>
   </g>
   <g id="patch_28">
    <path d="M 756.693035 435.551025 
L 770.186165 435.551025 
L 770.186165 80.848617 
L 756.693035 80.848617 
z
" clip-path="url(#p935c59e486)" style="fill: #ffb600; opacity: 0.8; stroke: #1a1a1a; stroke-linejoin: miter"/>
   </g>
   <g id="patch_29">
    <path d="M 783.679294 435.551025 
L 797.172424 435.551025 
L 797.172424 68.81565 
L 783.679294 68.81565 
z
" clip-path="url(#p935c59e486)" style="fill: #ffb600; opacity: 0.8; stroke: #1a1a1a; stroke-linejoin: miter"/>
   </g>
   <g id="patch_30">
    <path d="M 810.665553 435.551025 
L 824.158682 435.551025 
L 824.158682 194.780129 
L 810.665553 194.780129 
z
" clip-path="url(#p935c59e486)" style="fill: #ffb600; opacity: 0.8; stroke: #1a1a1a; stroke-linejoin: miter"/>
   </g>
   <g id="patch_31">
    <path d="M 837.651812 435.551025 
L 851.144941 435.551025 
L 851.144941 107.672513 
L 837.651812 107.672513 
z
" clip-path="url(#p935c59e486)" style="fill: #ffb600; opacity: 0.8; stroke: #1a1a1a; stroke-linejoin: miter"/>
   </g>
   <g id="patch_32">
    <path d="M 864.638071 435.551025 
L 878.1312 435.551025 
L 878.1312 233.021065 
L 864.638071 233.021065 
z
" clip-path="url(#p935c59e486)" style="fill: #ffb600; opacity: 0.8; stroke: #1a1a1a; stroke-linejoin: miter"/>
   </g>
   <g id="patch_33">
    <path d="M 891.624329 435.551025 
L 905.117459 435.551025 
L 905.117459 186.739867 
L 891.624329 186.739867 
z
" clip-path="url(#p935c59e486)" style="fill: #ffb600; opacity: 0.8; stroke: #1a1a1a; stroke-linejoin: miter"/>
   </g>
   <g id="patch_34">
    <path d="M 918.610588 435.551025 
L 932.103718 435.551025 
L 932.103718 148.112878 
L 918.610588 148.112878 
z
" clip-path="url(#p935c59e486)" style="fill: #ffb600; opacity: 0.8; stroke: #1a1a1a; stroke-linejoin: miter"/>
   </g>
   <g id="patch_35">
    <path d="M 945.596847 435.551025 
L 959.089976 435.551025 
L 959.089976 142.372073 
L 945.596847 142.372073 
z
" clip-path="url(#p935c59e486)" style="fill: #ffb600; opacity: 0.8; stroke: #1a1a1a; stroke-linejoin: miter"/>
   </g>
   <g id="patch_36">
    <path d="M 972.583106 435.551025 
L 986.076235 435.551025 
L 986.076235 162.948049 
L 972.583106 162.948049 
z
" clip-path="url(#p935c59e486)" style="fill: #ffb600; opacity: 0.8; stroke: #1a1a1a; stroke-linejoin: miter"/>
   </g>
   <g id="line2d_42">
    <path d="M 88.783129 65.994683 
L 93.54541 59.574545 
L 98.307691 56.983563 
L 103.069972 56.328573 
L 107.832253 56.184688 
L 112.594534 56.154093 
L 117.356815 56.147633 
L 122.119096 56.146268 
L 126.881377 56.145969 
L 131.643658 56.145848 
L 136.405939 56.145548 
L 141.16822 56.144183 
L 145.930501 56.137723 
L 150.692782 56.107128 
L 155.455063 55.963243 
L 160.217344 55.308253 
L 164.979625 52.717271 
L 169.741906 46.297133 
L 174.504187 52.717271 
L 179.266468 55.308253 
L 184.028749 55.963243 
L 188.79103 56.107128 
L 193.553311 56.137723 
L 198.315592 56.144183 
L 203.077873 56.145548 
L 207.840154 56.145848 
L 212.602435 56.145969 
L 217.364716 56.146268 
L 222.126997 56.147633 
L 226.889278 56.154093 
L 231.651558 56.184688 
L 236.413839 56.328573 
L 241.17612 56.983563 
L 245.938401 59.574545 
L 250.700682 65.994683 
" clip-path="url(#p935c59e486)" style="fill: none; stroke: #000000; stroke-linecap: round"/>
   </g>
   <g id="line2d_43">
    <path d="M 277.686941 65.994683 
L 282.505916 59.522368 
L 287.324891 56.954328 
L 292.143866 56.318778 
L 296.96284 56.181919 
L 301.781815 56.153356 
L 306.60079 56.147386 
L 311.419765 56.145908 
L 316.238739 56.14443 
L 321.057714 56.138461 
L 325.876689 56.109897 
L 330.695664 55.973038 
L 335.514639 55.337488 
L 340.333613 52.769448 
L 345.152588 46.297133 
L 349.971563 52.769448 
L 354.790538 55.337488 
L 359.609513 55.973038 
L 364.428487 56.109897 
L 369.247462 56.138461 
L 374.066437 56.14443 
L 378.885412 56.145908 
L 383.704387 56.147386 
L 388.523361 56.153356 
L 393.342336 56.181919 
L 398.161311 56.318778 
L 402.980286 56.954328 
L 407.799261 59.522368 
L 412.618235 65.994683 
" clip-path="url(#p935c59e486)" style="fill: none; stroke: #000000; stroke-linecap: round"/>
   </g>
   <g id="line2d_44">
    <path d="M 439.604494 65.994683 
L 444.242757 59.690895 
L 448.881021 57.051074 
L 453.519284 56.351955 
L 458.157547 56.191501 
L 462.79581 56.155932 
L 467.434074 56.148109 
L 472.072337 56.146391 
L 476.7106 56.146014 
L 481.348863 56.145931 
L 485.987126 56.145913 
L 490.62539 56.145909 
L 495.263653 56.145908 
L 499.901916 56.145908 
L 504.540179 56.145908 
L 509.178443 56.145908 
L 513.816706 56.145908 
L 518.454969 56.145908 
L 523.093232 56.145908 
L 527.731496 56.145908 
L 532.369759 56.145908 
L 537.008022 56.145907 
L 541.646285 56.145903 
L 546.284549 56.145885 
L 550.922812 56.145802 
L 555.561075 56.145425 
L 560.199338 56.143707 
L 564.837601 56.135884 
L 569.475865 56.100315 
L 574.114128 55.939862 
L 578.752391 55.240742 
L 583.390654 52.600921 
L 588.028918 46.297133 
L 592.667181 52.600921 
L 597.305444 55.240742 
L 601.943707 55.939862 
L 606.581971 56.100315 
L 611.220234 56.135884 
L 615.858497 56.143707 
L 620.49676 56.145425 
L 625.135024 56.145802 
L 629.773287 56.145885 
L 634.41155 56.145903 
L 639.049813 56.145907 
L 643.688076 56.145908 
L 648.32634 56.145908 
L 652.964603 56.145908 
L 657.602866 56.145908 
L 662.241129 56.145908 
L 666.879393 56.145908 
L 671.517656 56.145908 
L 676.155919 56.145908 
L 680.794182 56.145908 
L 685.432446 56.145909 
L 690.070709 56.145913 
L 694.708972 56.145931 
L 699.347235 56.146014 
L 703.985499 56.146391 
L 708.623762 56.148109 
L 713.262025 56.155932 
L 717.900288 56.191501 
L 722.538551 56.351955 
L 727.176815 57.051074 
L 731.815078 59.690895 
L 736.453341 65.994683 
" clip-path="url(#p935c59e486)" style="fill: none; stroke: #000000; stroke-linecap: round"/>
   </g>
   <g id="line2d_45">
    <path d="M 763.4396 65.994683 
L 768.132862 59.63892 
L 772.826125 57.020518 
L 777.519387 56.341241 
L 782.21265 56.188344 
L 786.905912 56.155071 
L 791.599174 56.147884 
L 796.292437 56.146334 
L 800.985699 56.146 
L 805.678962 56.145928 
L 810.372224 56.145912 
L 815.065486 56.145909 
L 819.758749 56.145907 
L 824.452011 56.145904 
L 829.145274 56.145888 
L 833.838536 56.145816 
L 838.531798 56.145482 
L 843.225061 56.143932 
L 847.918323 56.136745 
L 852.611586 56.103473 
L 857.304848 55.950576 
L 861.99811 55.271298 
L 866.691373 52.652896 
L 871.384635 46.297133 
L 876.077898 52.652896 
L 880.77116 55.271298 
L 885.464423 55.950576 
L 890.157685 56.103473 
L 894.850947 56.136745 
L 899.54421 56.143932 
L 904.237472 56.145482 
L 908.930735 56.145816 
L 913.623997 56.145888 
L 918.317259 56.145904 
L 923.010522 56.145907 
L 927.703784 56.145909 
L 932.397047 56.145912 
L 937.090309 56.145928 
L 941.783571 56.146 
L 946.476834 56.146334 
L 951.170096 56.147884 
L 955.863359 56.155071 
L 960.556621 56.188344 
L 965.249883 56.341241 
L 969.943146 57.020518 
L 974.636408 59.63892 
L 979.329671 65.994683 
" clip-path="url(#p935c59e486)" style="fill: none; stroke: #000000; stroke-linecap: round"/>
   </g>
   <g id="patch_37">
    <path d="M 70.29 435.551025 
L 70.29 71.903948 
" style="fill: none; stroke: #262626; stroke-width: 1.25; stroke-linejoin: miter; stroke-linecap: square"/>
   </g>
   <g id="patch_38">
    <path d="M 88.783129 440.551025 
L 979.329671 440.551025 
" style="fill: none; stroke: #262626; stroke-width: 1.25; stroke-linejoin: miter; stroke-linecap: square"/>
   </g>
   <g id="text_44">
    <!-- Panel A: 47.99% -->
    <g style="fill: #262626" transform="translate(112.674406 34.293456) scale(0.16 -0.16)">
     <defs>
      <path id="Graphik-Light-3a" d="M 755 -32 
Q 646 -32 566 48 
Q 486 128 486 237 
Q 486 352 566 432 
Q 646 512 755 512 
Q 870 512 950 432 
Q 1030 352 1030 237 
Q 1030 128 950 48 
Q 870 -32 755 -32 
z
M 755 2048 
Q 646 2048 566 2125 
Q 486 2202 486 2317 
Q 486 2432 566 2509 
Q 646 2586 755 2586 
Q 870 2586 950 2509 
Q 1030 2432 1030 2317 
Q 1030 2202 950 2125 
Q 870 2048 755 2048 
z
" transform="scale(0.015625)"/>
      <path id="Graphik-Light-2e" d="M 730 -32 
Q 621 -32 541 48 
Q 461 128 461 237 
Q 461 352 541 432 
Q 621 512 730 512 
Q 845 512 925 432 
Q 1005 352 1005 237 
Q 1005 128 925 48 
Q 845 -32 730 -32 
z
" transform="scale(0.015625)"/>
     </defs>
     <use xlink:href="#Graphik-Light-50"/>
     <use xlink:href="#Graphik-Light-61" x="56.799988"/>
     <use xlink:href="#Graphik-Light-6e" x="109.699982"/>
     <use xlink:href="#Graphik-Light-65" x="167.999969"/>
     <use xlink:href="#Graphik-Light-6c" x="223.399963"/>
     <use xlink:href="#Graphik-Light-20" x="245.59996"/>
     <use xlink:href="#Graphik-Light-41" x="270.299957"/>
     <use xlink:href="#Graphik-Light-3a" x="335.699951"/>
     <use xlink:href="#Graphik-Light-20" x="359.399948"/>
     <use xlink:href="#Graphik-Light-34" x="384.099945"/>
     <use xlink:href="#Graphik-Light-37" x="443.59993"/>
     <use xlink:href="#Graphik-Light-2e" x="493.999924"/>
     <use xlink:href="#Graphik-Light-39" x="516.899918"/>
     <use xlink:href="#Graphik-Light-39" x="576.799911"/>
     <use xlink:href="#Graphik-Light-25" x="636.699905"/>
    </g>
   </g>
   <g id="text_45">
    <!-- Panel B: 24.61% -->
    <g style="fill: #262626" transform="translate(290.062588 34.293456) scale(0.16 -0.16)">
     <defs>
      <path id="Graphik-Light-42" d="M 589 0 
L 589 4576 
L 1888 4576 
Q 2528 4576 2902 4294 
Q 3277 4013 3277 3418 
L 3277 3392 
Q 3277 2618 2496 2400 
Q 3501 2214 3501 1286 
L 3501 1261 
Q 3501 646 3123 323 
Q 2746 0 2080 0 
L 589 0 
z
M 941 288 
L 2074 288 
Q 3155 288 3155 1261 
L 3155 1286 
Q 3155 2234 1952 2234 
L 941 2234 
L 941 288 
z
M 941 2515 
L 1894 2515 
Q 2925 2515 2925 3398 
L 2925 3424 
Q 2925 4288 1882 4288 
L 941 4288 
L 941 2515 
z
" transform="scale(0.015625)"/>
     </defs>
     <use xlink:href="#Graphik-Light-50"/>
     <use xlink:href="#Graphik-Light-61" x="56.799988"/>
     <use xlink:href="#Graphik-Light-6e" x="109.699982"/>
     <use xlink:href="#Graphik-Light-65" x="167.999969"/>
     <use xlink:href="#Graphik-Light-6c" x="223.399963"/>
     <use xlink:href="#Graphik-Light-20" x="245.59996"/>
     <use xlink:href="#Graphik-Light-42" x="270.299957"/>
     <use xlink:href="#Graphik-Light-3a" x="330.699951"/>
     <use xlink:href="#Graphik-Light-20" x="354.399948"/>
     <use xlink:href="#Graphik-Light-32" x="379.099945"/>
     <use xlink:href="#Graphik-Light-34" x="432.799942"/>
     <use xlink:href="#Graphik-Light-2e" x="492.299927"/>
     <use xlink:href="#Graphik-Light-36" x="515.199921"/>
     <use xlink:href="#Graphik-Light-31" x="575.199905"/>
     <use xlink:href="#Graphik-Light-25" x="611.999893"/>
    </g>
   </g>
   <g id="text_46">
    <!-- Panel C: 40.52% -->
    <g style="fill: #262626" transform="translate(529.955168 34.293456) scale(0.16 -0.16)">
     <defs>
      <path id="Graphik-Light-43" d="M 2464 -51 
Q 1491 -51 915 582 
Q 339 1216 339 2259 
L 339 2310 
Q 339 3315 950 3974 
Q 1562 4634 2464 4634 
Q 3200 4634 3705 4259 
Q 4211 3885 4314 3200 
L 3955 3200 
Q 3846 3757 3472 4051 
Q 3098 4346 2470 4346 
Q 1696 4346 1200 3782 
Q 704 3219 704 2317 
L 704 2266 
Q 704 1338 1181 794 
Q 1658 250 2470 250 
Q 3098 250 3510 570 
Q 3923 890 4032 1472 
L 4365 1472 
Q 4243 749 3731 349 
Q 3219 -51 2464 -51 
z
" transform="scale(0.015625)"/>
     </defs>
     <use xlink:href="#Graphik-Light-50"/>
     <use xlink:href="#Graphik-Light-61" x="56.799988"/>
     <use xlink:href="#Graphik-Light-6e" x="109.699982"/>
     <use xlink:href="#Graphik-Light-65" x="167.999969"/>
     <use xlink:href="#Graphik-Light-6c" x="223.399963"/>
     <use xlink:href="#Graphik-Light-20" x="245.59996"/>
     <use xlink:href="#Graphik-Light-43" x="270.299957"/>
     <use xlink:href="#Graphik-Light-3a" x="342.799942"/>
     <use xlink:href="#Graphik-Light-20" x="366.499939"/>
     <use xlink:href="#Graphik-Light-34" x="391.199936"/>
     <use xlink:href="#Graphik-Light-30" x="450.699921"/>
     <use xlink:href="#Graphik-Light-2e" x="516.599915"/>
     <use xlink:href="#Graphik-Light-35" x="539.499908"/>
     <use xlink:href="#Graphik-Light-32" x="595.599899"/>
     <use xlink:href="#Graphik-Light-25" x="649.299896"/>
    </g>
   </g>
   <g id="text_47">
    <!-- Panel D: 47.68% -->
    <g style="fill: #262626" transform="translate(814.183385 34.293456) scale(0.16 -0.16)">
     <defs>
      <path id="Graphik-Light-44" d="M 947 294 
L 1754 294 
Q 2701 294 3193 835 
Q 3686 1376 3686 2278 
L 3686 2330 
Q 3686 3219 3200 3750 
Q 2714 4282 1747 4282 
L 947 4282 
L 947 294 
z
M 589 0 
L 589 4576 
L 1779 4576 
Q 2874 4576 3466 3952 
Q 4058 3328 4058 2330 
L 4058 2272 
Q 4058 1267 3472 633 
Q 2886 0 1766 0 
L 589 0 
z
" transform="scale(0.015625)"/>
     </defs>
     <use xlink:href="#Graphik-Light-50"/>
     <use xlink:href="#Graphik-Light-61" x="56.799988"/>
     <use xlink:href="#Graphik-Light-6e" x="109.699982"/>
     <use xlink:href="#Graphik-Light-65" x="167.999969"/>
     <use xlink:href="#Graphik-Light-6c" x="223.399963"/>
     <use xlink:href="#Graphik-Light-20" x="245.59996"/>
     <use xlink:href="#Graphik-Light-44" x="270.299957"/>
     <use xlink:href="#Graphik-Light-3a" x="338.899948"/>
     <use xlink:href="#Graphik-Light-20" x="362.599945"/>
     <use xlink:href="#Graphik-Light-34" x="387.299942"/>
     <use xlink:href="#Graphik-Light-37" x="446.799927"/>
     <use xlink:href="#Graphik-Light-2e" x="497.199921"/>
     <use xlink:href="#Graphik-Light-36" x="520.099915"/>
     <use xlink:href="#Graphik-Light-38" x="580.099899"/>
     <use xlink:href="#Graphik-Light-25" x="638.399887"/>
    </g>
   </g>
   <g id="text_48">
    <!-- A. -->
    <g style="fill: #262626" transform="translate(52.35168 25.75125) scale(0.24 -0.24)">
     <use xlink:href="#Graphik-Light-41"/>
     <use xlink:href="#Graphik-Light-2e" x="65.399994"/>
    </g>
   </g>
   <g id="legend_1">
    <g id="patch_39">
     <path d="M 896.892659 128.766105 
L 991.498128 128.766105 
Q 994.498128 128.766105 994.498128 125.766105 
L 994.498128 83.616105 
Q 994.498128 80.616105 991.498128 80.616105 
L 896.892659 80.616105 
Q 893.892659 80.616105 893.892659 83.616105 
L 893.892659 125.766105 
Q 893.892659 128.766105 896.892659 128.766105 
z
" style="fill: #ffffff; stroke: #000000; stroke-linejoin: miter"/>
    </g>
    <g id="patch_40">
     <path d="M 899.892659 98.210636 
L 929.892659 98.210636 
L 929.892659 87.710636 
L 899.892659 87.710636 
z
" style="fill: #00a0df; opacity: 0.7; stroke: #1a1a1a; stroke-linejoin: miter"/>
    </g>
    <g id="text_49">
     <!-- STEM -->
     <g style="fill: #262626" transform="translate(941.892659 98.210636) scale(0.15 -0.15)">
      <defs>
       <path id="Graphik-Light-53" d="M 1971 -51 
Q 1171 -51 758 323 
Q 346 698 269 1312 
L 621 1312 
Q 762 243 1971 243 
Q 2502 243 2828 518 
Q 3155 794 3155 1222 
Q 3155 1696 2889 1907 
Q 2624 2118 1926 2227 
Q 1158 2342 803 2620 
Q 448 2899 448 3430 
Q 448 3962 848 4294 
Q 1248 4627 1888 4627 
Q 2522 4627 2902 4326 
Q 3283 4026 3360 3475 
L 3034 3475 
Q 2867 4333 1888 4333 
Q 1363 4333 1072 4102 
Q 781 3872 781 3456 
Q 781 3066 1037 2858 
Q 1293 2650 1984 2547 
Q 2790 2426 3145 2147 
Q 3501 1869 3501 1248 
Q 3501 698 3075 323 
Q 2650 -51 1971 -51 
z
" transform="scale(0.015625)"/>
       <path id="Graphik-Light-54" d="M 1613 0 
L 1613 4282 
L 192 4282 
L 192 4576 
L 3386 4576 
L 3386 4282 
L 1965 4282 
L 1965 0 
L 1613 0 
z
" transform="scale(0.015625)"/>
       <path id="Graphik-Light-45" d="M 589 0 
L 589 4576 
L 3219 4576 
L 3219 4282 
L 947 4282 
L 947 2496 
L 2790 2496 
L 2790 2202 
L 947 2202 
L 947 294 
L 3334 294 
L 3334 0 
L 589 0 
z
" transform="scale(0.015625)"/>
       <path id="Graphik-Light-4d" d="M 589 0 
L 589 4576 
L 1101 4576 
L 2714 646 
L 4333 4576 
L 4832 4576 
L 4832 0 
L 4480 0 
L 4480 4128 
L 2758 0 
L 2643 0 
L 922 4128 
L 922 0 
L 589 0 
z
" transform="scale(0.015625)"/>
      </defs>
      <use xlink:href="#Graphik-Light-53"/>
      <use xlink:href="#Graphik-Light-54" x="60.199997"/>
      <use xlink:href="#Graphik-Light-45" x="116.099991"/>
      <use xlink:href="#Graphik-Light-4d" x="172.699982"/>
     </g>
    </g>
    <g id="patch_41">
     <path d="M 899.892659 120.035636 
L 929.892659 120.035636 
L 929.892659 109.535636 
L 899.892659 109.535636 
z
" style="fill: #ffb600; opacity: 0.7; stroke: #1a1a1a; stroke-linejoin: miter"/>
    </g>
    <g id="text_50">
     <!-- SHAPE -->
     <g style="fill: #262626" transform="translate(941.892659 120.035636) scale(0.15 -0.15)">
      <defs>
       <path id="Graphik-Light-48" d="M 589 0 
L 589 4576 
L 947 4576 
L 947 2445 
L 3642 2445 
L 3642 4576 
L 4000 4576 
L 4000 0 
L 3642 0 
L 3642 2144 
L 947 2144 
L 947 0 
L 589 0 
z
" transform="scale(0.015625)"/>
      </defs>
      <use xlink:href="#Graphik-Light-53"/>
      <use xlink:href="#Graphik-Light-48" x="60.199997"/>
      <use xlink:href="#Graphik-Light-41" x="131.899979"/>
      <use xlink:href="#Graphik-Light-50" x="197.299973"/>
      <use xlink:href="#Graphik-Light-45" x="254.09996"/>
     </g>
    </g>
   </g>
  </g>
 </g>
 <defs>
  <clipPath id="p935c59e486">
   <rect x="75.29" y="41.600025" width="917.5328" height="393.951"/>
  </clipPath>
 </defs>
</svg>
